<?xml version="1.0" encoding="UTF-8"?>
<svg id="Layer_1" xmlns="http://www.w3.org/2000/svg" xmlns:xlink="http://www.w3.org/1999/xlink" version="1.1" viewBox="0 0 1080 720">
  <!-- Generator: Adobe Illustrator 29.5.1, SVG Export Plug-In . SVG Version: 2.1.0 Build 141)  -->
  <defs>
    <style>
      .st0 {
        fill: #e5445e;
      }

      .st1 {
        fill: none;
        stroke: #fff;
        stroke-miterlimit: 10;
      }

      .st2 {
        fill: #3a3a3a;
      }

      .st3 {
        clip-path: url(#clippath);
      }
    </style>
    <clipPath id="clippath">
      <rect class="st0" x="1100" y="740" width="1080" height="720"/>
    </clipPath>
  </defs>
  <g>
    <g>
      <path class="st0" d="M329.93,340.98c0,29.13-20.16,47.44-45.07,47.44-10.68,0-19.31-3.22-25.59-9.66v41h-32.19v-124.7h30.66v9.14c6.1-7.28,15.09-10.66,27.12-10.66,24.91,0,45.07,18.29,45.07,47.44ZM297.4,340.98c0-13.9-8.47-21.87-19.31-21.87s-19.31,7.97-19.31,21.87,8.47,21.85,19.31,21.85,19.31-7.95,19.31-21.85Z"/>
      <path class="st0" d="M386,293.54v28.97c-2.88-.34-4.91-.5-7.28-.5-13.06,0-22.03,6.6-22.03,22.69v42.19h-32.19v-91.82h30.66v11.01c6.62-8.31,17.28-12.53,30.84-12.53Z"/>
      <path class="st0" d="M424.11,293.54c-29.98,0-51.85,19.66-51.85,47.26s21.87,47.62,51.85,47.62,51.86-19.82,51.86-47.62-21.53-47.26-51.86-47.26ZM424.11,362.83c-10.84,0-19.31-7.95-19.31-22.03h38.65c0,14.08-8.31,22.03-19.33,22.03Z"/>
      <path class="st0" d="M627.26,334.36v52.53h-32.19v-47.26c0-13.22-5.43-18.81-13.9-18.81-9.32,0-16.1,6.26-16.1,20.5v45.57h-32.19v-47.26c0-13.22-5.25-18.81-13.9-18.81-9.48,0-16.26,6.26-16.26,20.5v45.57h-32.19v-91.82h30.66v9.66c6.94-7.46,16.6-11.19,27.44-11.19,12.55,0,23.22,4.57,29.65,14.4,7.28-9.15,18.65-14.4,31.87-14.4,21.35,0,37.1,12.37,37.1,40.82Z"/>
      <path class="st0" d="M622.82,340.8c0-27.6,21.87-47.26,51.85-47.26s51.86,19.66,51.86,47.26-21.53,47.62-51.86,47.62-51.85-19.82-51.85-47.62ZM694,340.8c0-13.88-8.31-21.69-19.33-21.69s-19.31,7.8-19.31,21.69,8.47,22.03,19.31,22.03,19.33-7.95,19.33-22.03Z"/>
      <path class="st0" d="M694.83,416.55l8.15-22.87c2.7,1.69,6.26,2.72,9.98,2.72,5.59,0,9.5-3.72,9.5-12.03v-89.29h32.19v89.45c0,22.37-13.72,36.78-37.44,36.78-8.47,0-16.78-1.53-22.37-4.75Z"/>
      <path class="st0" d="M749.21,340.8c0-27.6,21.87-47.26,51.85-47.26s51.86,19.66,51.86,47.26-21.53,47.62-51.86,47.62-51.85-19.82-51.85-47.62ZM820.39,340.8c0-13.88-8.31-21.69-19.33-21.69s-19.31,7.8-19.31,21.69,8.47,22.03,19.31,22.03,19.33-7.95,19.33-22.03Z"/>
      <path class="st2" d="M738.55,284.89c10.84,0,19.31-7.8,19.31-21.69h-38.65c0,13.88,8.31,21.69,19.33,21.69Z"/>
    </g>
    <g>
      <path class="st2" d="M318.69,451.41c0,5.53-3.87,9.26-9.05,9.26-2.9,0-5.39-1.24-6.91-3.59v10.12h-2.45v-24.87h2.35v3.59c1.49-2.42,4.01-3.73,7.01-3.73,5.18,0,9.05,3.73,9.05,9.22ZM316.23,451.41c0-4.21-2.94-7.08-6.77-7.08s-6.77,2.87-6.77,7.08,2.9,7.08,6.77,7.08,6.77-2.83,6.77-7.08Z"/>
      <path class="st2" d="M337.45,452.17h-15.2c.28,3.8,3.18,6.32,7.15,6.32,2.21,0,4.18-.79,5.56-2.38l1.38,1.59c-1.62,1.93-4.15,2.97-7.01,2.97-5.67,0-9.54-3.87-9.54-9.26s3.77-9.22,8.88-9.22,8.81,3.77,8.81,9.22c0,.21-.03.48-.03.76ZM322.25,450.34h12.89c-.31-3.56-2.9-6.05-6.46-6.05s-6.12,2.49-6.43,6.05Z"/>
      <path class="st2" d="M349.58,442.19v2.38c-.21,0-.42-.03-.59-.03-3.8,0-6.11,2.42-6.11,6.7v9.26h-2.45v-18.17h2.35v3.56c1.14-2.42,3.45-3.7,6.81-3.7Z"/>
      <path class="st2" d="M349.54,458.42l1.11-1.93c1.45,1.14,3.9,2.04,6.46,2.04,3.45,0,4.87-1.17,4.87-2.97,0-4.73-11.78-1-11.78-8.19,0-2.97,2.56-5.18,7.19-5.18,2.35,0,4.91.66,6.43,1.69l-1.07,1.97c-1.59-1.11-3.49-1.55-5.35-1.55-3.28,0-4.73,1.28-4.73,3.01,0,4.91,11.78,1.21,11.78,8.19,0,3.14-2.76,5.18-7.5,5.18-3.01,0-5.91-.97-7.39-2.25Z"/>
      <path class="st2" d="M365.05,451.41c0-5.39,3.94-9.22,9.26-9.22s9.22,3.83,9.22,9.22-3.9,9.26-9.22,9.26-9.26-3.87-9.26-9.26ZM381.05,451.41c0-4.25-2.87-7.08-6.74-7.08s-6.77,2.83-6.77,7.08,2.9,7.08,6.77,7.08,6.74-2.83,6.74-7.08Z"/>
      <path class="st2" d="M403.19,449.96v10.54h-2.45v-10.29c0-3.83-2-5.8-5.46-5.8-3.9,0-6.36,2.42-6.36,6.56v9.53h-2.45v-18.17h2.35v3.35c1.31-2.21,3.76-3.49,6.91-3.49,4.42,0,7.46,2.56,7.46,7.77Z"/>
      <path class="st2" d="M421.5,449.23v11.26h-2.35v-2.83c-1.11,1.87-3.25,3.01-6.25,3.01-4.11,0-6.63-2.14-6.63-5.29,0-2.8,1.8-5.15,7.01-5.15h5.77v-1.11c0-3.11-1.76-4.8-5.15-4.8-2.35,0-4.56.83-6.04,2.14l-1.11-1.83c1.83-1.55,4.53-2.45,7.39-2.45,4.7,0,7.36,2.35,7.36,7.05ZM419.05,455.04v-2.97h-5.7c-3.52,0-4.66,1.38-4.66,3.25,0,2.11,1.69,3.42,4.59,3.42s4.8-1.31,5.77-3.7Z"/>
      <path class="st2" d="M426.1,434.86h2.45v25.63h-2.45v-25.63Z"/>
      <path class="st2" d="M433.32,434.86h2.45v25.63h-2.45v-25.63Z"/>
      <path class="st2" d="M455.81,442.33l-9.09,20.35c-1.52,3.56-3.45,4.7-6.04,4.7-1.69,0-3.32-.55-4.42-1.66l1.14-1.83c.9.9,2,1.38,3.32,1.38,1.62,0,2.73-.76,3.77-3.04l.79-1.76-8.12-18.14h2.56l6.84,15.44,6.84-15.44h2.42Z"/>
      <path class="st2" d="M482.59,451.41c0,5.53-3.87,9.26-9.05,9.26-2.9,0-5.39-1.24-6.91-3.59v10.12h-2.45v-24.87h2.35v3.59c1.49-2.42,4.01-3.73,7.01-3.73,5.18,0,9.05,3.73,9.05,9.22ZM480.13,451.41c0-4.21-2.94-7.08-6.77-7.08s-6.77,2.87-6.77,7.08,2.9,7.08,6.77,7.08,6.77-2.83,6.77-7.08Z"/>
      <path class="st2" d="M501.35,452.17h-15.2c.28,3.8,3.18,6.32,7.15,6.32,2.21,0,4.18-.79,5.56-2.38l1.38,1.59c-1.62,1.93-4.15,2.97-7.01,2.97-5.67,0-9.54-3.87-9.54-9.26s3.77-9.22,8.88-9.22,8.81,3.77,8.81,9.22c0,.21-.03.48-.03.76ZM486.15,450.34h12.89c-.31-3.56-2.9-6.05-6.46-6.05s-6.12,2.49-6.43,6.05Z"/>
      <path class="st2" d="M513.47,442.19v2.38c-.21,0-.42-.03-.59-.03-3.8,0-6.11,2.42-6.11,6.7v9.26h-2.45v-18.17h2.35v3.56c1.14-2.42,3.45-3.7,6.81-3.7Z"/>
      <path class="st2" d="M513.44,458.42l1.11-1.93c1.45,1.14,3.9,2.04,6.46,2.04,3.45,0,4.87-1.17,4.87-2.97,0-4.73-11.78-1-11.78-8.19,0-2.97,2.56-5.18,7.19-5.18,2.35,0,4.91.66,6.43,1.69l-1.07,1.97c-1.59-1.11-3.49-1.55-5.35-1.55-3.28,0-4.73,1.28-4.73,3.01,0,4.91,11.78,1.21,11.78,8.19,0,3.14-2.76,5.18-7.5,5.18-3.01,0-5.91-.97-7.39-2.25Z"/>
      <path class="st2" d="M528.95,451.41c0-5.39,3.94-9.22,9.26-9.22s9.22,3.83,9.22,9.22-3.9,9.26-9.22,9.26-9.26-3.87-9.26-9.26ZM544.95,451.41c0-4.25-2.87-7.08-6.74-7.08s-6.77,2.83-6.77,7.08,2.9,7.08,6.77,7.08,6.74-2.83,6.74-7.08Z"/>
      <path class="st2" d="M567.09,449.96v10.54h-2.45v-10.29c0-3.83-2-5.8-5.46-5.8-3.9,0-6.36,2.42-6.36,6.56v9.53h-2.45v-18.17h2.35v3.35c1.31-2.21,3.77-3.49,6.91-3.49,4.42,0,7.46,2.56,7.46,7.77Z"/>
      <path class="st2" d="M585.4,449.23v11.26h-2.35v-2.83c-1.11,1.87-3.25,3.01-6.25,3.01-4.11,0-6.63-2.14-6.63-5.29,0-2.8,1.79-5.15,7.01-5.15h5.77v-1.11c0-3.11-1.76-4.8-5.15-4.8-2.35,0-4.56.83-6.05,2.14l-1.11-1.83c1.83-1.55,4.53-2.45,7.39-2.45,4.7,0,7.36,2.35,7.36,7.05ZM582.95,455.04v-2.97h-5.7c-3.53,0-4.66,1.38-4.66,3.25,0,2.11,1.69,3.42,4.59,3.42s4.8-1.31,5.77-3.7Z"/>
      <path class="st2" d="M590,434.86h2.45v25.63h-2.45v-25.63Z"/>
      <path class="st2" d="M596.67,436.59c0-.93.79-1.73,1.8-1.73s1.79.76,1.79,1.69c0,1-.76,1.8-1.79,1.8s-1.8-.79-1.8-1.76ZM597.22,442.33h2.45v18.17h-2.45v-18.17Z"/>
      <path class="st2" d="M617.26,458.46v2.04h-14.79v-1.62l11.43-14.48h-11.23v-2.07h14.37v1.62l-11.44,14.51h11.64Z"/>
      <path class="st2" d="M635.53,452.17h-15.2c.28,3.8,3.18,6.32,7.15,6.32,2.21,0,4.18-.79,5.56-2.38l1.38,1.59c-1.62,1.93-4.14,2.97-7.01,2.97-5.67,0-9.54-3.87-9.54-9.26s3.77-9.22,8.88-9.22,8.81,3.77,8.81,9.22c0,.21-.04.48-.04.76ZM620.33,450.34h12.88c-.31-3.56-2.9-6.05-6.46-6.05s-6.12,2.49-6.43,6.05Z"/>
      <path class="st2" d="M655.09,434.86v25.63h-2.35v-3.59c-1.48,2.45-4.01,3.77-7.01,3.77-5.18,0-9.05-3.77-9.05-9.26s3.87-9.22,9.05-9.22c2.9,0,5.39,1.24,6.91,3.59v-10.92h2.45ZM652.67,451.41c0-4.25-2.9-7.08-6.74-7.08s-6.77,2.83-6.77,7.08,2.9,7.08,6.77,7.08,6.74-2.83,6.74-7.08Z"/>
    </g>
  </g>
  <g>
    <rect class="st0" x="1100" y="740" width="1080" height="720"/>
    <g class="st3">
      <path class="st1" d="M1295.2,471.19c-208.43,0-360.47,136.66-360.47,328.59s152.04,331.09,360.47,331.09,360.6-137.79,360.6-331.09-149.66-328.59-360.6-328.59ZM1295.2,952.95c-75.39,0-134.29-55.27-134.29-153.17h268.7c0,97.9-57.76,153.17-134.41,153.17Z"/>
    </g>
  </g>
</svg>